<svg width="96" height="144" viewBox="0 0 96 144" fill="none" xmlns="http://www.w3.org/2000/svg">
<mask id="mask0_115_126" style="mask-type:luminance" maskUnits="userSpaceOnUse" x="0" y="0" width="96" height="145">
<path fill-rule="evenodd" clip-rule="evenodd" d="M41.2795 0.889678C40.0843 2.40869 38.5734 4.96539 38.2511 6.01475C37.8559 7.30057 37.6352 9.13264 37.7421 10.2411C37.9858 12.7694 38.9125 14.742 41.0772 17.3397L41.9147 18.3449L40.8224 19.2205C39.3355 20.4122 33.9276 25.8492 32.228 27.8611C31.4674 28.7615 30.4293 30.0607 29.9211 30.7482C29.413 31.4355 28.9691 31.9697 28.9346 31.9349C28.9 31.9003 28.7441 31.3699 28.588 30.7563C28.2313 29.3544 27.3539 27.643 26.5035 26.6907C25.5906 25.6684 23.9646 24.4918 21.8469 23.3208C19.2793 21.9009 18.4083 21.5171 18.269 21.7436C18.2073 21.8438 17.9438 22.7968 17.6831 23.8612C17.2456 25.6479 17.2092 25.972 17.2092 28.0746C17.2092 30.0325 17.2533 30.4923 17.5234 31.3489C18.3603 34.004 20.555 36.3215 23.9371 38.1219C24.2877 38.3084 24.6001 38.4775 24.6313 38.4976C24.6626 38.5175 24.463 38.9033 24.1877 39.3547C21.6693 43.484 18.531 50.9509 17.7098 54.7677C17.6171 55.1983 17.5125 55.6409 17.4772 55.7514C17.4421 55.8617 17.197 55.5094 16.9329 54.9684C16.037 53.1342 14.7492 51.8882 12.8184 50.9881C11.6475 50.4422 10.3924 50.1725 7.22362 49.786C5.93824 49.6292 4.67949 49.4728 4.42624 49.4383C3.98659 49.3785 3.96591 49.397 3.96591 49.85C3.96591 50.8481 4.27284 53.3222 4.53672 54.4508C5.45072 58.3606 7.71568 60.9526 10.9771 61.8213C11.4606 61.95 12.7275 62.083 13.9161 62.1297C15.0652 62.1749 16.0053 62.2555 16.0053 62.3088C16.0053 62.3622 15.9138 63.0735 15.8019 63.8897C15.2268 68.0866 15.1561 75.0887 15.644 79.5388C15.7598 80.5959 15.8567 81.5496 15.8591 81.6582C15.8617 81.7668 15.5509 81.5615 15.1688 81.2022C12.6784 78.861 9.55515 78.1155 6.58624 79.1534C5.40214 79.5674 0 82.2531 0 82.4278C0 82.6006 1.19289 84.1387 2.17601 85.2333C5.00795 88.3867 8.14867 89.8416 11.0969 89.3661C12.294 89.173 13.3653 88.8101 15.3261 87.9334L16.8422 87.2555L17.0738 88.3443C18.7752 96.3446 23.282 105.945 28.2111 112.07L29.1976 113.295L28.6565 113.188C27.7592 113.009 26.0271 113.085 25.133 113.343C24.0392 113.659 23.197 114.158 22.253 115.049C21.0739 116.163 17.0867 120.972 17.2271 121.111C17.4244 121.306 19.577 122.2 21.1591 122.744C24.2307 123.799 26.9305 124.087 28.6918 123.549C29.9391 123.167 30.9453 122.459 32.7859 120.667L34.4166 119.079L35.4943 120.058C40.6275 124.722 45.5445 128.211 51.8184 131.64C62.4962 137.476 77.114 142.304 88.3123 143.692C89.9152 143.891 96.5689 144.107 95.9609 143.941C89.7644 142.245 77.0886 137.751 69.8535 134.685C64.2895 132.327 57.489 129.031 53.8231 126.917C48.6015 123.905 43.8047 120.536 39.8878 117.13C39.1177 116.46 38.3026 115.762 38.0763 115.577L37.6648 115.242L39.3347 113.506C40.2531 112.552 41.2106 111.42 41.4625 110.992C42.393 109.408 42.7121 107.045 42.2908 104.856C42.0746 103.733 40.4543 98.4997 40.2676 98.3218C40.1013 98.163 36.568 100.886 35.0596 102.335C33.1745 104.147 32.4681 105.659 32.4206 107.985C32.409 108.548 32.3598 109.007 32.3113 109.006C32.2107 109.003 29.3422 104.712 28.5063 103.313C26.8263 100.503 25.0831 96.7834 23.8627 93.4047C23.2442 91.6919 22.0386 87.2606 21.9311 86.3043L21.8833 85.8805L23.0873 85.7083C26.5652 85.2106 28.5728 84.4019 30.0721 82.895C31.5237 81.436 32.462 79.3445 33.0148 76.3356C33.3349 74.5924 33.5439 71.4241 33.3387 71.4241C33.2672 71.4241 32.5088 71.6499 31.6535 71.926C30.7983 72.202 28.983 72.7054 27.6197 73.0445C26.1074 73.4206 24.7854 73.8416 24.2289 74.1242C23.0487 74.7235 21.7767 75.9474 21.286 76.9555L20.9016 77.7452L20.7617 77.1829C20.6829 76.8661 20.6256 74.5993 20.6305 71.9936C20.6376 68.1951 20.69 66.9901 20.923 65.2629C21.0791 64.1057 21.2315 63.1376 21.2618 63.1115C21.292 63.0854 21.986 63.181 22.804 63.324C24.43 63.6083 26.4018 63.6653 27.6197 63.4633C30.2354 63.0295 32.3692 61.3753 34.0662 58.466C34.7476 57.2976 36.3137 53.9202 36.2184 53.8244C35.9654 53.5702 30.0939 52.6306 28.7834 52.6346C26.8819 52.6405 24.8932 53.3803 23.5084 54.5971C23.0237 55.0229 22.7887 55.1624 22.8615 54.9812C22.9245 54.8246 23.0992 54.2682 23.2497 53.7449C23.9836 51.1928 25.6624 47.135 26.8491 45.045C27.5813 43.7555 29.0392 41.3855 29.1003 41.3855C29.1217 41.3855 29.9292 41.8828 30.8946 42.4907C33.8686 44.3629 35.9974 44.9927 38.2758 44.6741C40.0223 44.43 41.5142 43.7426 43.299 42.3599C44.1369 41.7106 47.0244 38.7511 47.0244 38.5414C47.0244 38.4654 46.8173 38.2958 46.564 38.1647C46.3108 38.0335 45.1271 37.3523 43.9334 36.6508C40.1663 34.4374 38.6547 33.9128 36.3391 34.0157C35.5554 34.0504 34.6401 34.179 34.3051 34.3013C33.9701 34.4237 33.7152 34.4725 33.7386 34.41C33.7619 34.3474 34.603 33.3449 35.6076 32.1819C37.3871 30.1221 44.4886 22.8783 44.7285 22.8783C44.7945 22.8783 45.2061 23.4072 45.6429 24.0537C47.4651 26.7499 49.6783 28.6408 51.8805 29.3829C52.8824 29.7205 53.2704 29.7748 54.6729 29.7743C56.1826 29.7736 56.4142 29.7348 57.8391 29.2434C59.1983 28.7746 61.5859 27.7919 61.7409 27.6374C61.8724 27.5063 58.8765 22.8547 57.8264 21.5598C56.1729 19.5204 53.9998 18.2473 51.7704 18.0117C51.4214 17.9748 51.9725 17.6488 54.8865 16.1684C56.8333 15.1791 59.3341 14.0017 60.4436 13.552L62.4608 12.7341L63.418 13.2365C64.9549 14.0433 66.1055 14.3366 67.7336 14.3366C69.8589 14.3366 71.3961 13.8497 73.4144 12.5375C74.7203 11.6883 76.8953 9.49324 78.2382 7.66886C79.7571 5.60531 79.7156 5.72845 79.0363 5.29752C75.4816 3.04192 71.8892 2.14817 68.6866 2.72246C66.413 3.13019 64.7599 4.05241 62.8403 5.98413C61.6035 7.22867 61.3409 7.42314 60.5032 7.71541C57.041 8.92322 50.4343 12.2238 47.8813 14.0211C47.5476 14.256 47.5382 14.2549 47.6381 13.9923C47.8547 13.423 47.9165 10.6569 47.7377 9.54193C47.3242 6.96445 46.324 5.03158 43.5515 1.45272C42.1184 -0.397143 42.2637 -0.361123 41.2795 0.889678Z" fill="white"/>
</mask>
<g mask="url(#mask0_115_126)">
<path fill-rule="evenodd" clip-rule="evenodd" d="M41.2795 0.889678C40.0843 2.40869 38.5734 4.96539 38.2511 6.01475C37.8559 7.30057 37.6352 9.13264 37.7421 10.2411C37.9858 12.7694 38.9125 14.742 41.0772 17.3397L41.9147 18.3449L40.8224 19.2205C39.3355 20.4122 33.9276 25.8492 32.228 27.8611C31.4674 28.7615 30.4293 30.0607 29.9211 30.7482C29.413 31.4355 28.9691 31.9697 28.9346 31.9349C28.9 31.9003 28.7441 31.3699 28.588 30.7563C28.2313 29.3544 27.3539 27.643 26.5035 26.6907C25.5906 25.6684 23.9646 24.4918 21.8469 23.3208C19.2793 21.9009 18.4083 21.5171 18.269 21.7436C18.2073 21.8438 17.9438 22.7968 17.6831 23.8612C17.2456 25.6479 17.2092 25.972 17.2092 28.0746C17.2092 30.0325 17.2533 30.4923 17.5234 31.3489C18.3603 34.004 20.555 36.3215 23.9371 38.1219C24.2877 38.3084 24.6001 38.4775 24.6313 38.4976C24.6626 38.5175 24.463 38.9033 24.1877 39.3547C21.6693 43.484 18.531 50.9509 17.7098 54.7677C17.6171 55.1983 17.5125 55.6409 17.4772 55.7514C17.4421 55.8617 17.197 55.5094 16.9329 54.9684C16.037 53.1342 14.7492 51.8882 12.8184 50.9881C11.6475 50.4422 10.3924 50.1725 7.22362 49.786C5.93824 49.6292 4.67949 49.4728 4.42624 49.4383C3.98659 49.3785 3.96591 49.397 3.96591 49.85C3.96591 50.8481 4.27284 53.3222 4.53672 54.4508C5.45072 58.3606 7.71568 60.9526 10.9771 61.8213C11.4606 61.95 12.7275 62.083 13.9161 62.1297C15.0652 62.1749 16.0053 62.2555 16.0053 62.3088C16.0053 62.3622 15.9138 63.0735 15.8019 63.8897C15.2268 68.0866 15.1561 75.0887 15.644 79.5388C15.7598 80.5959 15.8567 81.5496 15.8591 81.6582C15.8617 81.7668 15.5509 81.5615 15.1688 81.2022C12.6784 78.861 9.55515 78.1155 6.58624 79.1534C5.40214 79.5674 0 82.2531 0 82.4278C0 82.6006 1.19289 84.1387 2.17601 85.2333C5.00795 88.3867 8.14867 89.8416 11.0969 89.3661C12.294 89.173 13.3653 88.8101 15.3261 87.9334L16.8422 87.2555L17.0738 88.3443C18.7752 96.3446 23.282 105.945 28.2111 112.07L29.1976 113.295L28.6565 113.188C27.7592 113.009 26.0271 113.085 25.133 113.343C24.0392 113.659 23.197 114.158 22.253 115.049C21.0739 116.163 17.0867 120.972 17.2271 121.111C17.4244 121.306 19.577 122.2 21.1591 122.744C24.2307 123.799 26.9305 124.087 28.6918 123.549C29.9391 123.167 30.9453 122.459 32.7859 120.667L34.4166 119.079L35.4943 120.058C40.6275 124.722 45.5445 128.211 51.8184 131.64C62.4962 137.476 77.114 142.304 88.3123 143.692C89.9152 143.891 96.5689 144.107 95.9609 143.941C89.7644 142.245 77.0886 137.751 69.8535 134.685C64.2895 132.327 57.489 129.031 53.8231 126.917C48.6015 123.905 43.8047 120.536 39.8878 117.13C39.1177 116.46 38.3026 115.762 38.0763 115.577L37.6648 115.242L39.3347 113.506C40.2531 112.552 41.2106 111.42 41.4625 110.992C42.393 109.408 42.7121 107.045 42.2908 104.856C42.0746 103.733 40.4543 98.4997 40.2676 98.3218C40.1013 98.163 36.568 100.886 35.0596 102.335C33.1745 104.147 32.4681 105.659 32.4206 107.985C32.409 108.548 32.3598 109.007 32.3113 109.006C32.2107 109.003 29.3422 104.712 28.5063 103.313C26.8263 100.503 25.0831 96.7834 23.8627 93.4047C23.2442 91.6919 22.0386 87.2606 21.9311 86.3043L21.8833 85.8805L23.0873 85.7083C26.5652 85.2106 28.5728 84.4019 30.0721 82.895C31.5237 81.436 32.462 79.3445 33.0148 76.3356C33.3349 74.5924 33.5439 71.4241 33.3387 71.4241C33.2672 71.4241 32.5088 71.6499 31.6535 71.926C30.7983 72.202 28.983 72.7054 27.6197 73.0445C26.1074 73.4206 24.7854 73.8416 24.2289 74.1242C23.0487 74.7235 21.7767 75.9474 21.286 76.9555L20.9016 77.7452L20.7617 77.1829C20.6829 76.8661 20.6256 74.5993 20.6305 71.9936C20.6376 68.1951 20.69 66.9901 20.923 65.2629C21.0791 64.1057 21.2315 63.1376 21.2618 63.1115C21.292 63.0854 21.986 63.181 22.804 63.324C24.43 63.6083 26.4018 63.6653 27.6197 63.4633C30.2354 63.0295 32.3692 61.3753 34.0662 58.466C34.7476 57.2976 36.3137 53.9202 36.2184 53.8244C35.9654 53.5702 30.0939 52.6306 28.7834 52.6346C26.8819 52.6405 24.8932 53.3803 23.5084 54.5971C23.0237 55.0229 22.7887 55.1624 22.8615 54.9812C22.9245 54.8246 23.0992 54.2682 23.2497 53.7449C23.9836 51.1928 25.6624 47.135 26.8491 45.045C27.5813 43.7555 29.0392 41.3855 29.1003 41.3855C29.1217 41.3855 29.9292 41.8828 30.8946 42.4907C33.8686 44.3629 35.9974 44.9927 38.2758 44.6741C40.0223 44.43 41.5142 43.7426 43.299 42.3599C44.1369 41.7106 47.0244 38.7511 47.0244 38.5414C47.0244 38.4654 46.8173 38.2958 46.564 38.1647C46.3108 38.0335 45.1271 37.3523 43.9334 36.6508C40.1663 34.4374 38.6547 33.9128 36.3391 34.0157C35.5554 34.0504 34.6401 34.179 34.3051 34.3013C33.9701 34.4237 33.7152 34.4725 33.7386 34.41C33.7619 34.3474 34.603 33.3449 35.6076 32.1819C37.3871 30.1221 44.4886 22.8783 44.7285 22.8783C44.7945 22.8783 45.2061 23.4072 45.6429 24.0537C47.4651 26.7499 49.6783 28.6408 51.8805 29.3829C52.8824 29.7205 53.2704 29.7748 54.6729 29.7743C56.1826 29.7736 56.4142 29.7348 57.8391 29.2434C59.1983 28.7746 61.5859 27.7919 61.7409 27.6374C61.8724 27.5063 58.8765 22.8547 57.8264 21.5598C56.1729 19.5204 53.9998 18.2473 51.7704 18.0117C51.4214 17.9748 51.9725 17.6488 54.8865 16.1684C56.8333 15.1791 59.3341 14.0017 60.4436 13.552L62.4608 12.7341L63.418 13.2365C64.9549 14.0433 66.1055 14.3366 67.7336 14.3366C69.8589 14.3366 71.3961 13.8497 73.4144 12.5375C74.7203 11.6883 76.8953 9.49324 78.2382 7.66886C79.7571 5.60531 79.7156 5.72845 79.0363 5.29752C75.4816 3.04192 71.8892 2.14817 68.6866 2.72246C66.413 3.13019 64.7599 4.05241 62.8403 5.98413C61.6035 7.22867 61.3409 7.42314 60.5032 7.71541C57.041 8.92322 50.4343 12.2238 47.8813 14.0211C47.5476 14.256 47.5382 14.2549 47.6381 13.9923C47.8547 13.423 47.9165 10.6569 47.7377 9.54193C47.3242 6.96445 46.324 5.03158 43.5515 1.45272C42.1184 -0.397143 42.2637 -0.361123 41.2795 0.889678Z" fill="url(#paint0_linear_115_126)" fill-opacity="0.75" stroke="url(#paint1_linear_115_126)" stroke-width="2"/>
</g>
<defs>
<linearGradient id="paint0_linear_115_126" x1="48" y1="1.79596e-07" x2="48" y2="144" gradientUnits="userSpaceOnUse">
<stop stop-color="#E8E355"/>
<stop offset="1" stop-color="#0C1710" stop-opacity="0"/>
</linearGradient>
<linearGradient id="paint1_linear_115_126" x1="48" y1="1.79596e-07" x2="48" y2="144" gradientUnits="userSpaceOnUse">
<stop stop-color="#E8E355"/>
<stop offset="1" stop-color="#0C1710" stop-opacity="0"/>
</linearGradient>
</defs>
</svg>
