<svg width="96" height="144" viewBox="0 0 96 144" fill="none" xmlns="http://www.w3.org/2000/svg">
<mask id="mask0_115_131" style="mask-type:luminance" maskUnits="userSpaceOnUse" x="0" y="0" width="96" height="145">
<path fill-rule="evenodd" clip-rule="evenodd" d="M54.7205 0.889678C55.9157 2.40869 57.4266 4.96539 57.7489 6.01475C58.1441 7.30057 58.3648 9.13264 58.2579 10.2411C58.0142 12.7694 57.0875 14.742 54.9228 17.3397L54.0853 18.3449L55.1776 19.2205C56.6645 20.4122 62.0724 25.8492 63.772 27.8611C64.5326 28.7615 65.5707 30.0607 66.0789 30.7482C66.587 31.4355 67.0309 31.9697 67.0654 31.9349C67.1 31.9003 67.2559 31.3699 67.412 30.7563C67.7687 29.3544 68.6461 27.643 69.4965 26.6907C70.4094 25.6684 72.0354 24.4918 74.1531 23.3208C76.7207 21.9009 77.5917 21.5171 77.731 21.7436C77.7927 21.8438 78.0562 22.7968 78.3169 23.8612C78.7544 25.6479 78.7908 25.972 78.7908 28.0746C78.7908 30.0325 78.7467 30.4923 78.4766 31.3489C77.6397 34.004 75.445 36.3215 72.0629 38.1219C71.7123 38.3084 71.3999 38.4775 71.3687 38.4976C71.3374 38.5175 71.537 38.9033 71.8123 39.3547C74.3307 43.484 77.469 50.9509 78.2902 54.7677C78.3829 55.1983 78.4875 55.6409 78.5228 55.7514C78.5579 55.8617 78.803 55.5094 79.0671 54.9684C79.963 53.1342 81.2508 51.8882 83.1816 50.9881C84.3525 50.4422 85.6076 50.1725 88.7764 49.786C90.0618 49.6292 91.3205 49.4728 91.5738 49.4383C92.0134 49.3785 92.0341 49.397 92.0341 49.85C92.0341 50.8481 91.7272 53.3222 91.4633 54.4508C90.5493 58.3606 88.2843 60.9526 85.0229 61.8213C84.5394 61.95 83.2725 62.083 82.0839 62.1297C80.9348 62.1749 79.9947 62.2555 79.9947 62.3088C79.9947 62.3622 80.0862 63.0735 80.1981 63.8897C80.7732 68.0866 80.8439 75.0887 80.356 79.5388C80.2402 80.5959 80.1433 81.5496 80.1409 81.6582C80.1383 81.7668 80.4491 81.5615 80.8312 81.2022C83.3216 78.861 86.4448 78.1155 89.4138 79.1534C90.5979 79.5674 96 82.2531 96 82.4278C96 82.6006 94.8071 84.1387 93.824 85.2333C90.992 88.3867 87.8513 89.8416 84.9031 89.3661C83.706 89.173 82.6347 88.8101 80.6739 87.9334L79.1578 87.2555L78.9262 88.3443C77.2248 96.3446 72.718 105.945 67.7889 112.07L66.8024 113.295L67.3435 113.188C68.2408 113.009 69.9729 113.085 70.867 113.343C71.9608 113.659 72.803 114.158 73.747 115.049C74.9261 116.163 78.9133 120.972 78.7729 121.111C78.5756 121.306 76.423 122.2 74.8409 122.744C71.7693 123.799 69.0695 124.087 67.3082 123.549C66.0609 123.167 65.0547 122.459 63.2141 120.667L61.5834 119.079L60.5057 120.058C55.3725 124.722 50.4555 128.211 44.1816 131.64C33.5038 137.476 18.886 142.304 7.68769 143.692C6.08475 143.891 -0.568914 144.107 0.0391418 143.941C6.2356 142.245 18.9114 137.751 26.1465 134.685C31.7105 132.327 38.511 129.031 42.1769 126.917C47.3985 123.905 52.1953 120.536 56.1122 117.13C56.8823 116.46 57.6974 115.762 57.9237 115.577L58.3352 115.242L56.6653 113.506C55.7469 112.552 54.7894 111.42 54.5375 110.992C53.607 109.408 53.2879 107.045 53.7092 104.856C53.9254 103.733 55.5457 98.4997 55.7324 98.3218C55.8987 98.163 59.432 100.886 60.9404 102.335C62.8255 104.147 63.5319 105.659 63.5794 107.985C63.591 108.548 63.6402 109.007 63.6887 109.006C63.7893 109.003 66.6578 104.712 67.4937 103.313C69.1737 100.503 70.9169 96.7834 72.1373 93.4047C72.7558 91.6919 73.9614 87.2606 74.0689 86.3043L74.1167 85.8805L72.9127 85.7083C69.4348 85.2106 67.4272 84.4019 65.9279 82.895C64.4763 81.436 63.538 79.3445 62.9852 76.3356C62.6651 74.5924 62.4561 71.4241 62.6613 71.4241C62.7328 71.4241 63.4912 71.6499 64.3465 71.926C65.2017 72.202 67.017 72.7054 68.3803 73.0445C69.8926 73.4206 71.2146 73.8416 71.7711 74.1242C72.9513 74.7235 74.2233 75.9474 74.714 76.9555L75.0984 77.7452L75.2383 77.1829C75.3171 76.8661 75.3744 74.5993 75.3695 71.9936C75.3624 68.1951 75.31 66.9901 75.077 65.2629C74.9209 64.1057 74.7685 63.1376 74.7382 63.1115C74.708 63.0854 74.014 63.181 73.196 63.324C71.57 63.6083 69.5982 63.6653 68.3803 63.4633C65.7646 63.0295 63.6308 61.3753 61.9338 58.466C61.2524 57.2976 59.6863 53.9202 59.7816 53.8244C60.0346 53.5702 65.9061 52.6306 67.2166 52.6346C69.1181 52.6405 71.1068 53.3803 72.4916 54.5971C72.9763 55.0229 73.2113 55.1624 73.1385 54.9812C73.0755 54.8246 72.9008 54.2682 72.7503 53.7449C72.0164 51.1928 70.3376 47.135 69.1509 45.045C68.4187 43.7555 66.9608 41.3855 66.8997 41.3855C66.8783 41.3855 66.0708 41.8828 65.1054 42.4907C62.1314 44.3629 60.0026 44.9927 57.7242 44.6741C55.9777 44.43 54.4858 43.7426 52.701 42.3599C51.8631 41.7106 48.9756 38.7511 48.9756 38.5414C48.9756 38.4654 49.1827 38.2958 49.436 38.1647C49.6892 38.0335 50.8729 37.3523 52.0666 36.6508C55.8337 34.4374 57.3453 33.9128 59.6609 34.0157C60.4446 34.0504 61.3599 34.179 61.6949 34.3013C62.0299 34.4237 62.2848 34.4725 62.2614 34.41C62.2381 34.3474 61.397 33.3449 60.3924 32.1819C58.6129 30.1221 51.5114 22.8783 51.2715 22.8783C51.2055 22.8783 50.7939 23.4072 50.3571 24.0537C48.5349 26.7499 46.3217 28.6408 44.1195 29.3829C43.1176 29.7205 42.7296 29.7748 41.3271 29.7743C39.8174 29.7736 39.5858 29.7348 38.1609 29.2434C36.8017 28.7746 34.4141 27.7919 34.2591 27.6374C34.1276 27.5063 37.1235 22.8547 38.1736 21.5598C39.8271 19.5204 42.0002 18.2473 44.2296 18.0117C44.5786 17.9748 44.0275 17.6488 41.1135 16.1684C39.1667 15.1791 36.6659 14.0017 35.5564 13.552L33.5392 12.7341L32.582 13.2365C31.0451 14.0433 29.8945 14.3366 28.2664 14.3366C26.1411 14.3366 24.6039 13.8497 22.5856 12.5375C21.2797 11.6883 19.1047 9.49324 17.7618 7.66886C16.2429 5.60531 16.2844 5.72845 16.9637 5.29752C20.5184 3.04192 24.1108 2.14817 27.3134 2.72246C29.587 3.13019 31.2401 4.05241 33.1597 5.98413C34.3965 7.22867 34.6591 7.42314 35.4968 7.71541C38.959 8.92322 45.5657 12.2238 48.1187 14.0211C48.4524 14.256 48.4618 14.2549 48.3619 13.9923C48.1453 13.423 48.0835 10.6569 48.2623 9.54193C48.6758 6.96445 49.676 5.03158 52.4485 1.45272C53.8816 -0.397143 53.7363 -0.361123 54.7205 0.889678Z" fill="white"/>
</mask>
<g mask="url(#mask0_115_131)">
<path fill-rule="evenodd" clip-rule="evenodd" d="M54.7205 0.889678C55.9157 2.40869 57.4266 4.96539 57.7489 6.01475C58.1441 7.30057 58.3648 9.13264 58.2579 10.2411C58.0142 12.7694 57.0875 14.742 54.9228 17.3397L54.0853 18.3449L55.1776 19.2205C56.6645 20.4122 62.0724 25.8492 63.772 27.8611C64.5326 28.7615 65.5707 30.0607 66.0789 30.7482C66.587 31.4355 67.0309 31.9697 67.0654 31.9349C67.1 31.9003 67.2559 31.3699 67.412 30.7563C67.7687 29.3544 68.6461 27.643 69.4965 26.6907C70.4094 25.6684 72.0354 24.4918 74.1531 23.3208C76.7207 21.9009 77.5917 21.5171 77.731 21.7436C77.7927 21.8438 78.0562 22.7968 78.3169 23.8612C78.7544 25.6479 78.7908 25.972 78.7908 28.0746C78.7908 30.0325 78.7467 30.4923 78.4766 31.3489C77.6397 34.004 75.445 36.3215 72.0629 38.1219C71.7123 38.3084 71.3999 38.4775 71.3687 38.4976C71.3374 38.5175 71.537 38.9033 71.8123 39.3547C74.3307 43.484 77.469 50.9509 78.2902 54.7677C78.3829 55.1983 78.4875 55.6409 78.5228 55.7514C78.5579 55.8617 78.803 55.5094 79.0671 54.9684C79.963 53.1342 81.2508 51.8882 83.1816 50.9881C84.3525 50.4422 85.6076 50.1725 88.7764 49.786C90.0618 49.6292 91.3205 49.4728 91.5738 49.4383C92.0134 49.3785 92.0341 49.397 92.0341 49.85C92.0341 50.8481 91.7272 53.3222 91.4633 54.4508C90.5493 58.3606 88.2843 60.9526 85.0229 61.8213C84.5394 61.95 83.2725 62.083 82.0839 62.1297C80.9348 62.1749 79.9947 62.2555 79.9947 62.3088C79.9947 62.3622 80.0862 63.0735 80.1981 63.8897C80.7732 68.0866 80.8439 75.0887 80.356 79.5388C80.2402 80.5959 80.1433 81.5496 80.1409 81.6582C80.1383 81.7668 80.4491 81.5615 80.8312 81.2022C83.3216 78.861 86.4448 78.1155 89.4138 79.1534C90.5979 79.5674 96 82.2531 96 82.4278C96 82.6006 94.8071 84.1387 93.824 85.2333C90.992 88.3867 87.8513 89.8416 84.9031 89.3661C83.706 89.173 82.6347 88.8101 80.6739 87.9334L79.1578 87.2555L78.9262 88.3443C77.2248 96.3446 72.718 105.945 67.7889 112.07L66.8024 113.295L67.3435 113.188C68.2408 113.009 69.9729 113.085 70.867 113.343C71.9608 113.659 72.803 114.158 73.747 115.049C74.9261 116.163 78.9133 120.972 78.7729 121.111C78.5756 121.306 76.423 122.2 74.8409 122.744C71.7693 123.799 69.0695 124.087 67.3082 123.549C66.0609 123.167 65.0547 122.459 63.2141 120.667L61.5834 119.079L60.5057 120.058C55.3725 124.722 50.4555 128.211 44.1816 131.64C33.5038 137.476 18.886 142.304 7.68769 143.692C6.08475 143.891 -0.568914 144.107 0.0391418 143.941C6.2356 142.245 18.9114 137.751 26.1465 134.685C31.7105 132.327 38.511 129.031 42.1769 126.917C47.3985 123.905 52.1953 120.536 56.1122 117.13C56.8823 116.46 57.6974 115.762 57.9237 115.577L58.3352 115.242L56.6653 113.506C55.7469 112.552 54.7894 111.42 54.5375 110.992C53.607 109.408 53.2879 107.045 53.7092 104.856C53.9254 103.733 55.5457 98.4997 55.7324 98.3218C55.8987 98.163 59.432 100.886 60.9404 102.335C62.8255 104.147 63.5319 105.659 63.5794 107.985C63.591 108.548 63.6402 109.007 63.6887 109.006C63.7893 109.003 66.6578 104.712 67.4937 103.313C69.1737 100.503 70.9169 96.7834 72.1373 93.4047C72.7558 91.6919 73.9614 87.2606 74.0689 86.3043L74.1167 85.8805L72.9127 85.7083C69.4348 85.2106 67.4272 84.4019 65.9279 82.895C64.4763 81.436 63.538 79.3445 62.9852 76.3356C62.6651 74.5924 62.4561 71.4241 62.6613 71.4241C62.7328 71.4241 63.4912 71.6499 64.3465 71.926C65.2017 72.202 67.017 72.7054 68.3803 73.0445C69.8926 73.4206 71.2146 73.8416 71.7711 74.1242C72.9513 74.7235 74.2233 75.9474 74.714 76.9555L75.0984 77.7452L75.2383 77.1829C75.3171 76.8661 75.3744 74.5993 75.3695 71.9936C75.3624 68.1951 75.31 66.9901 75.077 65.2629C74.9209 64.1057 74.7685 63.1376 74.7382 63.1115C74.708 63.0854 74.014 63.181 73.196 63.324C71.57 63.6083 69.5982 63.6653 68.3803 63.4633C65.7646 63.0295 63.6308 61.3753 61.9338 58.466C61.2524 57.2976 59.6863 53.9202 59.7816 53.8244C60.0346 53.5702 65.9061 52.6306 67.2166 52.6346C69.1181 52.6405 71.1068 53.3803 72.4916 54.5971C72.9763 55.0229 73.2113 55.1624 73.1385 54.9812C73.0755 54.8246 72.9008 54.2682 72.7503 53.7449C72.0164 51.1928 70.3376 47.135 69.1509 45.045C68.4187 43.7555 66.9608 41.3855 66.8997 41.3855C66.8783 41.3855 66.0708 41.8828 65.1054 42.4907C62.1314 44.3629 60.0026 44.9927 57.7242 44.6741C55.9777 44.43 54.4858 43.7426 52.701 42.3599C51.8631 41.7106 48.9756 38.7511 48.9756 38.5414C48.9756 38.4654 49.1827 38.2958 49.436 38.1647C49.6892 38.0335 50.8729 37.3523 52.0666 36.6508C55.8337 34.4374 57.3453 33.9128 59.6609 34.0157C60.4446 34.0504 61.3599 34.179 61.6949 34.3013C62.0299 34.4237 62.2848 34.4725 62.2614 34.41C62.2381 34.3474 61.397 33.3449 60.3924 32.1819C58.6129 30.1221 51.5114 22.8783 51.2715 22.8783C51.2055 22.8783 50.7939 23.4072 50.3571 24.0537C48.5349 26.7499 46.3217 28.6408 44.1195 29.3829C43.1176 29.7205 42.7296 29.7748 41.3271 29.7743C39.8174 29.7736 39.5858 29.7348 38.1609 29.2434C36.8017 28.7746 34.4141 27.7919 34.2591 27.6374C34.1276 27.5063 37.1235 22.8547 38.1736 21.5598C39.8271 19.5204 42.0002 18.2473 44.2296 18.0117C44.5786 17.9748 44.0275 17.6488 41.1135 16.1684C39.1667 15.1791 36.6659 14.0017 35.5564 13.552L33.5392 12.7341L32.582 13.2365C31.0451 14.0433 29.8945 14.3366 28.2664 14.3366C26.1411 14.3366 24.6039 13.8497 22.5856 12.5375C21.2797 11.6883 19.1047 9.49324 17.7618 7.66886C16.2429 5.60531 16.2844 5.72845 16.9637 5.29752C20.5184 3.04192 24.1108 2.14817 27.3134 2.72246C29.587 3.13019 31.2401 4.05241 33.1597 5.98413C34.3965 7.22867 34.6591 7.42314 35.4968 7.71541C38.959 8.92322 45.5657 12.2238 48.1187 14.0211C48.4524 14.256 48.4618 14.2549 48.3619 13.9923C48.1453 13.423 48.0835 10.6569 48.2623 9.54193C48.6758 6.96445 49.676 5.03158 52.4485 1.45272C53.8816 -0.397143 53.7363 -0.361123 54.7205 0.889678Z" fill="url(#paint0_linear_115_131)" fill-opacity="0.75" stroke="url(#paint1_linear_115_131)" stroke-width="2"/>
</g>
<defs>
<linearGradient id="paint0_linear_115_131" x1="48" y1="1.79596e-07" x2="48" y2="144" gradientUnits="userSpaceOnUse">
<stop stop-color="#E8E355"/>
<stop offset="1" stop-color="#0C1710" stop-opacity="0"/>
</linearGradient>
<linearGradient id="paint1_linear_115_131" x1="48" y1="1.79596e-07" x2="48" y2="144" gradientUnits="userSpaceOnUse">
<stop stop-color="#E8E355"/>
<stop offset="1" stop-color="#0C1710" stop-opacity="0"/>
</linearGradient>
</defs>
</svg>
