<?xml version="1.0" encoding="UTF-8"?>
<svg version="1.1" xmlns="http://www.w3.org/2000/svg" width="262" height="301">
<path d="M0 0 C2.56386454 1.29198101 4.89634558 2.60285554 7.3125 4.125 C8.81932043 5.04199676 10.32720418 5.95724768 11.8359375 6.87109375 C12.65803711 7.37237793 13.48013672 7.87366211 14.32714844 8.39013672 C19.32027938 11.39750843 24.38336609 14.28426156 29.4375 17.1875 C31.68630925 18.48287966 33.93500571 19.77845514 36.18359375 21.07421875 C37.31265137 21.72438965 38.44170898 22.37456055 39.60498047 23.04443359 C45.0716998 26.19332054 50.53574887 29.34683264 56 32.5 C58.16665311 33.7500235 60.33331979 35.00002347 62.5 36.25 C66.83333333 38.75 71.16666667 41.25 75.5 43.75 C77.11128784 44.6793335 77.11128784 44.6793335 78.75512695 45.62744141 C80.90530118 46.86826875 83.05488581 48.11011837 85.20385742 49.35302734 C90.26296321 52.27743259 95.327295 55.19130633 100.4133606 58.06854248 C102.80647214 59.42319433 105.19619932 60.78375513 107.58569336 62.14477539 C109.26675625 63.09903349 110.9526544 64.04475775 112.63867188 64.99023438 C113.66154297 65.57353516 114.68441406 66.15683594 115.73828125 66.7578125 C116.63587158 67.2645752 117.53346191 67.77133789 118.45825195 68.29345703 C122.37392874 70.92246296 125.60364652 73.15541032 126.6292057 77.9282608 C126.6320334 79.55977207 126.6320334 79.55977207 126.63491821 81.22424316 C126.64901733 82.47759964 126.66311646 83.73095612 126.67764282 85.02229309 C126.66792217 86.40353757 126.65768138 87.78477846 126.64697266 89.16601562 C126.65375089 90.62661326 126.66265519 92.08720234 126.67352295 93.54777527 C126.69629903 97.50864592 126.6874874 101.46886472 126.67162752 105.42974663 C126.65895957 109.576758 126.67071111 113.72371395 126.67855835 117.87072754 C126.68765234 124.83465587 126.67567372 131.79831898 126.65185547 138.76220703 C126.62464448 146.81094762 126.63345883 154.85905493 126.6609875 162.90778017 C126.68368484 169.82090818 126.68687565 176.73384565 126.67379415 183.64699888 C126.666003 187.77476601 126.66494857 191.90223557 126.68147659 196.02998352 C126.69593144 199.9109947 126.68588229 203.79119027 126.65700531 207.67211342 C126.65039974 209.09550434 126.6522833 210.51896403 126.66331863 211.9423275 C126.67700291 213.88677884 126.65679068 215.83138036 126.63491821 217.77575684 C126.63303308 218.86343102 126.63114796 219.95110519 126.6292057 221.0717392 C125.62016911 225.76769519 122.47559935 227.98958338 118.6418457 230.61474609 C117.82804443 231.07961426 117.01424316 231.54448242 116.17578125 232.0234375 C115.24330566 232.56154053 114.31083008 233.09964355 113.35009766 233.65405273 C112.34769043 234.22196533 111.3452832 234.78987793 110.3125 235.375 C109.25595215 235.982229 108.1994043 236.58945801 107.11083984 237.21508789 C104.87309323 238.5005984 102.63346354 239.78283577 100.39208984 241.06201172 C96.03413275 243.55182484 91.68943422 246.0642438 87.34448242 248.57666016 C82.99294118 251.09182262 78.63746331 253.60013065 74.28222656 256.10888672 C68.85340055 259.2368015 63.42682751 262.36861966 58 265.5 C55.83984643 266.74609839 53.67969017 267.99219214 51.51953125 269.23828125 C46.00901589 272.41732913 40.49978955 275.59860331 34.99121094 278.78100586 C32.80930684 280.04013157 30.62638237 281.29749096 28.44238281 282.55297852 C23.24582829 285.54064013 18.06362817 288.54790653 12.91015625 291.609375 C11.47506714 292.45302612 11.47506714 292.45302612 10.01098633 293.3137207 C8.22467291 294.3642796 6.44410589 295.42469789 4.6706543 296.49682617 C-3.00721635 300.9838327 -3.00721635 300.9838327 -8 300 C-10.76600759 298.8499272 -13.29875221 297.39756534 -15.875 295.875 C-16.65182129 295.42979004 -17.42864258 294.98458008 -18.22900391 294.52587891 C-20.82763587 293.03111767 -23.41420565 291.51684879 -26 290 C-27.8434779 288.92661587 -29.68723476 287.85371074 -31.53125 286.78125 C-34.49268852 285.05654431 -37.45267876 283.32949262 -40.40966797 281.59716797 C-48.24210523 277.0097204 -56.11306955 272.49273842 -64 268 C-73.70862257 262.46778363 -83.38696535 256.88691331 -93.02734375 251.23632812 C-98.33237771 248.12929686 -103.65143912 245.04912748 -108.9921875 242.00390625 C-110.17306028 241.32893782 -111.3538874 240.6538895 -112.53466797 239.97875977 C-114.77855718 238.6974633 -117.02483193 237.42033183 -119.27392578 236.14819336 C-120.29728027 235.56303955 -121.32063477 234.97788574 -122.375 234.375 C-123.26960938 233.86710938 -124.16421875 233.35921875 -125.0859375 232.8359375 C-126.52839844 231.92714844 -126.52839844 231.92714844 -128 231 C-128.98992966 230.51165853 -128.98992966 230.51165853 -129.9998579 230.01345158 C-132.50754589 228.55890916 -134.16708868 227.26116866 -136 225 C-137.20335966 220.24325548 -137.06441423 215.50284389 -136.98754883 210.62866211 C-136.99348213 209.15805858 -137.00286449 207.68746553 -137.01542664 206.21690369 C-137.03903995 202.23293845 -137.01264385 198.25073809 -136.97580934 194.26693034 C-136.94433881 190.09458851 -136.95437572 185.92232288 -136.95866394 181.74989319 C-136.95949265 174.74467016 -136.92869035 167.74013762 -136.87817383 160.73510742 C-136.82009199 152.63915948 -136.80782478 144.54415463 -136.8210333 136.44803041 C-136.83303721 128.65457729 -136.8166262 120.86145061 -136.78589439 113.06805611 C-136.77308379 109.75353376 -136.769488 106.43919088 -136.77317238 103.12464714 C-136.7759372 99.22138001 -136.75357965 95.31903216 -136.71188545 91.41599464 C-136.70049135 89.98456906 -136.69754096 88.55304737 -136.70369339 87.12158966 C-136.71064277 85.16616435 -136.68370444 83.21070642 -136.65510559 81.25547791 C-136.64932401 80.1617282 -136.64354242 79.0679785 -136.63758564 77.94108486 C-135.58431641 73.08251528 -132.27952253 70.84430377 -128.2746582 68.20166016 C-126.80258911 67.37867432 -126.80258911 67.37867432 -125.30078125 66.5390625 C-124.18751465 65.91056396 -123.07424805 65.28206543 -121.92724609 64.63452148 C-120.72234406 63.96465701 -119.51742833 63.29481717 -118.3125 62.625 C-117.05497159 61.917689 -115.79798111 61.20942084 -114.54150391 60.50024414 C-111.95744507 59.04213888 -109.37161204 57.58725663 -106.78466797 56.13427734 C-101.12185585 52.94765247 -95.49880297 49.69232065 -89.875 46.4375 C-87.72662511 45.19650618 -85.57818756 43.95562084 -83.4296875 42.71484375 C-82.36975586 42.10237793 -81.30982422 41.48991211 -80.21777344 40.85888672 C-75.89679815 38.36268749 -71.57432542 35.86908837 -67.25170898 33.37573242 C-65.09222592 32.13004518 -62.93288235 30.88411606 -60.77368164 29.63793945 C-55.22253108 26.43427159 -49.66947714 23.23397317 -44.11328125 20.0390625 C-41.84622265 18.73460354 -39.57929345 17.42991967 -37.3125 16.125 C-36.22831787 15.50093262 -35.14413574 14.87686523 -34.02709961 14.23388672 C-26.84841138 10.09210174 -19.72570772 5.87087017 -12.66015625 1.5390625 C-7.98097356 -1.16812984 -5.24311867 -1.14098956 0 0 Z " fill="#D79639" transform="translate(136,1)"/>
<path d="M0 0 C2.56386454 1.29198101 4.89634558 2.60285554 7.3125 4.125 C8.81932043 5.04199676 10.32720418 5.95724768 11.8359375 6.87109375 C12.65803711 7.37237793 13.48013672 7.87366211 14.32714844 8.39013672 C19.32027938 11.39750843 24.38336609 14.28426156 29.4375 17.1875 C31.68630925 18.48287966 33.93500571 19.77845514 36.18359375 21.07421875 C37.31265137 21.72438965 38.44170898 22.37456055 39.60498047 23.04443359 C45.0716998 26.19332054 50.53574887 29.34683264 56 32.5 C58.16665311 33.7500235 60.33331979 35.00002347 62.5 36.25 C66.83333333 38.75 71.16666667 41.25 75.5 43.75 C76.57427246 44.3697168 77.64854492 44.98943359 78.75537109 45.62792969 C80.90432957 46.86782537 83.05309523 48.10805529 85.20166016 49.34863281 C90.27724766 52.27872574 95.35473735 55.20536409 100.43914795 58.12011719 C102.8404023 59.49696526 105.24055526 60.87572692 107.640625 62.25463867 C109.33486603 63.22696703 111.03069581 64.1965254 112.7265625 65.16601562 C113.75265625 65.75576172 114.77875 66.34550781 115.8359375 66.953125 C116.73876465 67.47036133 117.6415918 67.98759766 118.57177734 68.52050781 C120.8455102 69.90587089 122.97586487 71.268731 125 73 C125 73.66 125 74.32 125 75 C123.98679687 75.53109375 122.97359375 76.0621875 121.9296875 76.609375 C120.57803541 77.32274694 119.22647793 78.03629817 117.875 78.75 C117.20984375 79.09804687 116.5446875 79.44609375 115.859375 79.8046875 C112.82563336 81.41078602 109.93019457 83.04653696 107.0703125 84.953125 C103.96423457 87.02384362 100.79103499 88.80750763 97.52001953 90.59912109 C92.76960464 93.23987682 88.11075837 96.0382361 83.4375 98.8125 C82.42880859 99.40998047 81.42011719 100.00746094 80.38085938 100.62304688 C77.91992651 102.08094549 75.45965629 103.53994905 73 105 C72.15179688 104.5153125 71.30359375 104.030625 70.4296875 103.53125 C69.87104004 103.2120459 69.31239258 102.8928418 68.73681641 102.56396484 C67.47078615 101.84047155 66.20483868 101.11683336 64.93896484 100.39306641 C61.8934327 98.65201348 58.84684435 96.91296276 55.796875 95.1796875 C49.38166216 91.52965261 42.99558302 87.83346775 36.62573242 84.10473633 C27.20940322 78.59542951 17.780944 73.10681362 8.3125 67.6875 C7.35093994 67.1303833 6.38937988 66.5732666 5.39868164 65.99926758 C4.50012451 65.48775146 3.60156738 64.97623535 2.67578125 64.44921875 C1.89114502 63.99893311 1.10650879 63.54864746 0.2980957 63.0847168 C-2.16813547 61.92063891 -4.2951507 61.32697524 -7 61 C-9.3711492 61.96066939 -9.3711492 61.96066939 -11.625 63.5625 C-14.99061284 65.72259362 -18.33644562 67.76113881 -21.875 69.625 C-28.3014988 73.08188634 -34.5175042 76.88374373 -40.74365234 80.68603516 C-44.43224275 82.9246829 -48.09693595 85.10017856 -51.98046875 86.984375 C-57.81071736 89.81881772 -63.24885952 93.34290404 -68.75390625 96.75390625 C-69.60082031 97.27082031 -70.44773437 97.78773437 -71.3203125 98.3203125 C-72.07586426 98.78711426 -72.83141602 99.25391602 -73.60986328 99.73486328 C-76.32784781 101.17353497 -79.07798806 102.0560058 -82 103 C-81.97477768 104.13037689 -81.94955536 105.26075378 -81.92356873 106.42538452 C-81.69644869 117.10611464 -81.5597575 127.784737 -81.51034451 138.46780968 C-81.4820673 143.9600517 -81.42256203 149.44816503 -81.2902832 154.93896484 C-81.16365025 160.24405856 -81.12088858 165.54396243 -81.13490486 170.85048294 C-81.12575884 172.8689062 -81.08697828 174.88743037 -81.01739311 176.90467453 C-80.51434883 192.30295815 -80.51434883 192.30295815 -84.67839813 196.82113647 C-88.77636987 200.01460279 -93.24891067 202.18743058 -98.03234291 204.16342449 C-100.49554322 205.21068677 -102.73016017 206.52801405 -104.9921875 207.953125 C-111.83467417 212.00335981 -118.68578501 216.00276748 -125.703125 219.74609375 C-130.67486299 222.42732684 -130.67486299 222.42732684 -135 226 C-136.77767094 224.22232906 -136.14169715 221.62497499 -136.15390015 219.21881104 C-136.16250061 217.96253906 -136.17110107 216.70626709 -136.17996216 215.41192627 C-136.18439781 214.00671428 -136.18869613 212.60150185 -136.19287109 211.19628906 C-136.20076881 209.72643844 -136.20903755 208.25658977 -136.21765137 206.78674316 C-136.24391325 201.94638939 -136.25918472 197.10602679 -136.2734375 192.265625 C-136.27879577 190.60125472 -136.28417327 188.9368845 -136.28956985 187.27251434 C-136.31120611 180.34975561 -136.32994316 173.42699925 -136.34119225 166.50421524 C-136.35743215 156.57422168 -136.39060206 146.64461943 -136.44759309 136.71477342 C-136.48627254 129.73808731 -136.50582264 122.76150594 -136.51111281 115.78471541 C-136.51476952 111.61545716 -136.52682362 107.44661585 -136.55921555 103.27747345 C-136.58926089 99.35394299 -136.59562108 95.43108246 -136.58383179 91.50746155 C-136.58361074 90.06790929 -136.59194184 88.62832629 -136.60948563 87.18888092 C-136.63214632 85.22242563 -136.62090742 83.25566705 -136.60800171 81.28912354 C-136.61131186 80.18887974 -136.614622 79.08863594 -136.61803246 77.95505142 C-135.5974274 73.07514519 -132.28740904 70.84950775 -128.2746582 68.20166016 C-126.80258911 67.37867432 -126.80258911 67.37867432 -125.30078125 66.5390625 C-124.18751465 65.91056396 -123.07424805 65.28206543 -121.92724609 64.63452148 C-120.72234406 63.96465701 -119.51742833 63.29481717 -118.3125 62.625 C-117.05497159 61.917689 -115.79798111 61.20942084 -114.54150391 60.50024414 C-111.95744507 59.04213888 -109.37161204 57.58725663 -106.78466797 56.13427734 C-101.12185585 52.94765247 -95.49880297 49.69232065 -89.875 46.4375 C-87.72662511 45.19650618 -85.57818756 43.95562084 -83.4296875 42.71484375 C-82.36975586 42.10237793 -81.30982422 41.48991211 -80.21777344 40.85888672 C-75.89679815 38.36268749 -71.57432542 35.86908837 -67.25170898 33.37573242 C-65.09222592 32.13004518 -62.93288235 30.88411606 -60.77368164 29.63793945 C-55.22253108 26.43427159 -49.66947714 23.23397317 -44.11328125 20.0390625 C-41.84622265 18.73460354 -39.57929345 17.42991967 -37.3125 16.125 C-36.22831787 15.50093262 -35.14413574 14.87686523 -34.02709961 14.23388672 C-26.84841138 10.09210174 -19.72570772 5.87087017 -12.66015625 1.5390625 C-7.98097356 -1.16812984 -5.24311867 -1.14098956 0 0 Z " fill="#EBB44C" transform="translate(136,1)"/>
<path d="M0 0 C0.845625 0.45375 1.69125 0.9075 2.5625 1.375 C3.655625 1.91125 4.74875 2.4475 5.875 3 C7.2053125 3.680625 7.2053125 3.680625 8.5625 4.375 C8.5625 5.035 8.5625 5.695 8.5625 6.375 C9.35914063 6.59929687 10.15578125 6.82359375 10.9765625 7.0546875 C15.58326296 8.75083647 19.67969741 11.07570092 23.9375 13.5 C25.18466797 14.20189453 25.18466797 14.20189453 26.45703125 14.91796875 C28.49484954 16.06570549 30.52985569 17.21813282 32.5625 18.375 C32.5625 19.035 32.5625 19.695 32.5625 20.375 C33.284375 20.478125 34.00625 20.58125 34.75 20.6875 C37.84043421 21.44293947 39.97993841 22.53031315 42.5625 24.375 C42.5625 25.035 42.5625 25.695 42.5625 26.375 C43.8825 26.705 45.2025 27.035 46.5625 27.375 C46.5625 31.375 46.5625 31.375 44.296875 33.6953125 C39.47079424 37.39230435 34.09368843 40.26565979 28.8125 43.25 C27.06243101 44.24905513 25.31236705 45.24811921 23.56262207 46.2477417 C21.75433576 47.27988121 19.94465381 48.30953968 18.13476562 49.33886719 C12.595938 52.49197465 7.08050789 55.68565027 1.5625 58.875 C-0.60144292 60.12390513 -2.76550582 61.3726024 -4.9296875 62.62109375 C-6.5379541 63.54897705 -6.5379541 63.54897705 -8.17871094 64.49560547 C-11.45449566 66.38480166 -14.73105893 68.27264109 -18.0078125 70.16015625 C-27.68042311 75.73359359 -37.34844515 81.31375008 -46.984375 86.95043945 C-50.90929531 89.24506093 -54.83941889 91.53069237 -58.76953125 93.81640625 C-61.28022386 95.28312126 -63.78133146 96.76502343 -66.28125 98.25 C-67.70799252 99.0839167 -69.13505096 99.91729326 -70.5625 100.75 C-71.18334473 101.12560059 -71.80418945 101.50120117 -72.44384766 101.88818359 C-76.30460763 104.11508975 -79.00814438 105.07556135 -83.4375 104.375 C-86.20833802 103.23775569 -88.73697977 101.77213535 -91.3125 100.25 C-92.08932129 99.80479004 -92.86614258 99.35958008 -93.66650391 98.90087891 C-96.26513587 97.40611767 -98.85170565 95.89184879 -101.4375 94.375 C-103.2809779 93.30161587 -105.12473476 92.22871074 -106.96875 91.15625 C-109.93018852 89.43154431 -112.89017876 87.70449262 -115.84716797 85.97216797 C-123.67960523 81.3847204 -131.55056955 76.86773842 -139.4375 72.375 C-149.14440035 66.84376499 -158.81916173 61.26078989 -168.46044922 55.61572266 C-173.7957554 52.49355404 -179.1402664 49.38857876 -184.5 46.30859375 C-185.38665848 45.79875191 -185.38665848 45.79875191 -186.29122925 45.27861023 C-189.15504591 43.63221416 -192.02012458 41.98812099 -194.88720703 40.34741211 C-199.8469171 37.49815917 -204.74046202 34.64179804 -209.4375 31.375 C-209.3046875 29.6171875 -209.3046875 29.6171875 -208.4375 27.375 C-205.8828125 25.4453125 -205.8828125 25.4453125 -202.5625 23.5 C-201.97823242 23.15412842 -201.39396484 22.80825684 -200.79199219 22.4519043 C-195.41454216 19.29268888 -189.93884394 16.3118713 -184.4375 13.375 C-182.97656468 12.58814536 -181.51812989 11.79662654 -180.0625 11 C-179.34578125 10.608125 -178.6290625 10.21625 -177.890625 9.8125 C-175.96816228 8.68596134 -174.09114603 7.48180907 -172.234375 6.25 C-171.38625244 5.6938501 -171.38625244 5.6938501 -170.52099609 5.12646484 C-168.88720667 4.04925644 -167.26743289 2.95088036 -165.6484375 1.8515625 C-161.61943364 -0.0011911 -159.73499993 0.454699 -155.4375 1.375 C-152.45336914 2.73510742 -152.45336914 2.73510742 -149.47265625 4.48046875 C-148.35479736 5.12741699 -147.23693848 5.77436523 -146.08520508 6.44091797 C-144.88999823 7.1478779 -143.69493322 7.85507767 -142.5 8.5625 C-141.25409468 9.28894518 -140.00758499 10.01435472 -138.76049805 10.73876953 C-136.21481757 12.22006233 -133.67311297 13.70783677 -131.13476562 15.20166016 C-127.71667701 17.21303963 -124.28950337 19.20842582 -120.859375 21.19921875 C-113.32763863 25.57380494 -105.81048383 29.97286205 -98.30859375 34.3984375 C-97.12946411 35.09380615 -97.12946411 35.09380615 -95.92651367 35.80322266 C-94.48701912 36.65301259 -93.04831256 37.50413951 -91.6105957 38.35693359 C-89.89198114 39.37274853 -88.16521602 40.37474336 -86.4375 41.375 C-85.75171875 41.81328125 -85.0659375 42.2515625 -84.359375 42.703125 C-80.72095986 43.97509127 -77.26480009 42.76683732 -73.88647461 41.16674805 C-73.04608643 40.66183838 -72.20569824 40.15692871 -71.33984375 39.63671875 C-70.38464844 39.07017578 -69.42945313 38.50363281 -68.4453125 37.91992188 C-67.43210938 37.30697266 -66.41890625 36.69402344 -65.375 36.0625 C-63.20755624 34.77385616 -61.03957801 33.4861109 -58.87109375 32.19921875 C-57.78683105 31.55259277 -56.70256836 30.9059668 -55.58544922 30.23974609 C-51.06704463 27.56318535 -46.50552447 24.96564876 -41.9375 22.375 C-23.14562639 11.86419653 -23.14562639 11.86419653 -4.77734375 0.65258789 C-2.4375 -0.625 -2.4375 -0.625 0 0 Z " fill="#CA822A" transform="translate(211.4375,196.625)"/>
<path d="M0 0 C5.64987021 0.44966875 9.51201124 2.1007573 14.3125 5.125 C15.81932043 6.04199676 17.32720418 6.95724768 18.8359375 7.87109375 C19.65803711 8.37237793 20.48013672 8.87366211 21.32714844 9.39013672 C26.32027938 12.39750843 31.38336609 15.28426156 36.4375 18.1875 C38.68630925 19.48287966 40.93500571 20.77845514 43.18359375 22.07421875 C44.31265137 22.72438965 45.44170898 23.37456055 46.60498047 24.04443359 C52.0716998 27.19332054 57.53574887 30.34683264 63 33.5 C65.16665311 34.7500235 67.33331979 36.00002347 69.5 37.25 C73.83333333 39.75 78.16666667 42.25 82.5 44.75 C83.57427246 45.3697168 84.64854492 45.98943359 85.75537109 46.62792969 C87.90432957 47.86782537 90.05309523 49.10805529 92.20166016 50.34863281 C97.27724766 53.27872574 102.35473735 56.20536409 107.43914795 59.12011719 C109.8404023 60.49696526 112.24055526 61.87572692 114.640625 63.25463867 C116.33486603 64.22696703 118.03069581 65.1965254 119.7265625 66.16601562 C120.75265625 66.75576172 121.77875 67.34550781 122.8359375 67.953125 C123.73876465 68.47036133 124.6415918 68.98759766 125.57177734 69.52050781 C127.8455102 70.90587089 129.97586487 72.268731 132 74 C132 74.66 132 75.32 132 76 C130.98679687 76.53109375 129.97359375 77.0621875 128.9296875 77.609375 C127.57803541 78.32274694 126.22647793 79.03629817 124.875 79.75 C124.20984375 80.09804687 123.5446875 80.44609375 122.859375 80.8046875 C119.82563336 82.41078602 116.93019457 84.04653696 114.0703125 85.953125 C110.96423457 88.02384362 107.79103499 89.80750763 104.52001953 91.59912109 C99.76960464 94.23987682 95.11075837 97.0382361 90.4375 99.8125 C89.42880859 100.40998047 88.42011719 101.00746094 87.38085938 101.62304688 C84.91992651 103.08094549 82.45965629 104.53994905 80 106 C79.15179688 105.5153125 78.30359375 105.030625 77.4296875 104.53125 C76.87104004 104.2120459 76.31239258 103.8928418 75.73681641 103.56396484 C74.47078615 102.84047155 73.20483868 102.11683336 71.93896484 101.39306641 C68.8934327 99.65201348 65.84684435 97.91296276 62.796875 96.1796875 C55.35336835 91.94458889 47.95371357 87.63823057 40.5625 83.3125 C31.16602377 77.81376056 21.71834465 72.41314608 12.22290039 67.0871582 C11.31789795 66.57886475 10.41289551 66.07057129 9.48046875 65.546875 C8.68535889 65.10182617 7.89024902 64.65677734 7.07104492 64.19824219 C5.34124929 63.19743622 3.66281156 62.10854104 2 61 C1.60800171 58.53308105 1.60800171 58.53308105 1.58349609 55.38867188 C1.56692963 54.21405396 1.55036316 53.03943604 1.53329468 51.82922363 C1.53004181 50.55526733 1.52678894 49.28131104 1.5234375 47.96875 C1.49963845 45.97984463 1.47583517 43.9909393 1.4517765 42.00203705 C1.42174507 39.2110973 1.40534772 36.42013624 1.38873291 33.62908936 C1.35722877 28.74482782 1.30620331 23.86074386 1.25234985 18.97668457 C1.22503948 16.3747723 1.20372498 13.77278923 1.18881226 11.17077637 C1.17855011 9.99615845 1.16828796 8.82154053 1.15771484 7.61132812 C1.14797134 6.05484558 1.14797134 6.05484558 1.13803101 4.46691895 C1.16334107 1.99622578 1.16334107 1.99622578 0 0 Z " fill="#E6AC49" transform="translate(129,0)"/>
<path d="M0 0 C0.27876663 7.70100723 0.49160814 15.40148888 0.62174606 23.10640049 C0.68423437 26.68513914 0.76885265 30.26041411 0.90527344 33.8371582 C1.03626484 37.29342617 1.10751621 40.74637972 1.13852692 44.20493889 C1.17130411 46.15739965 1.26490827 48.10853456 1.35955811 50.05897522 C1.36233561 53.7384699 1.24058539 56.53151623 0 60 C-3.63315637 63.26719753 -7.53465838 65.09843942 -12 67 C-13.67543603 67.87932317 -15.34390668 68.77226776 -17 69.6875 C-17.88300781 70.16316406 -18.76601562 70.63882813 -19.67578125 71.12890625 C-25.10777678 74.18639845 -30.42461341 77.43777122 -35.74414062 80.6862793 C-39.43267313 82.92496934 -43.09831232 85.10133863 -46.98046875 86.98828125 C-51.87919995 89.371083 -56.47987361 92.22458545 -61.125 95.0625 C-76.12360913 104.21098299 -76.12360913 104.21098299 -80.375 103.1875 C-81.24125 102.795625 -82.1075 102.40375 -83 102 C-83 101.34 -83 100.68 -83 100 C-83.86625 99.9175 -84.7325 99.835 -85.625 99.75 C-89.51107778 98.88642716 -91.88500021 97.44749984 -95 95 C-95 94.34 -95 93.68 -95 93 C-95.72058594 92.88914062 -96.44117187 92.77828125 -97.18359375 92.6640625 C-100.19236434 91.95464364 -102.37460139 90.8912505 -105.0625 89.375 C-106.00867188 88.84132813 -106.95484375 88.30765625 -107.9296875 87.7578125 C-108.94289063 87.17773438 -109.95609375 86.59765625 -111 86 C-112.11632812 85.37867187 -113.23265625 84.75734375 -114.3828125 84.1171875 C-115.47335938 83.50101562 -116.56390625 82.88484375 -117.6875 82.25 C-119.20923828 81.39148438 -119.20923828 81.39148438 -120.76171875 80.515625 C-121.86966797 79.76539062 -121.86966797 79.76539062 -123 79 C-123 78.34 -123 77.68 -123 77 C-124.65 77 -126.3 77 -128 77 C-128 76.01 -128 75.02 -128 74 C-126.38263741 72.6072711 -124.7074998 71.28062485 -123 70 C-122.10039551 69.05133057 -122.10039551 69.05133057 -121.18261719 68.08349609 C-118.73015066 65.74240556 -116.28452207 64.25899439 -113.328125 62.6015625 C-112.20148438 61.96476562 -111.07484375 61.32796875 -109.9140625 60.671875 C-109.01929199 60.17204102 -109.01929199 60.17204102 -108.10644531 59.66210938 C-105.57121465 58.2457943 -103.04409327 56.81528802 -100.51647949 55.38543701 C-99.22040919 54.65235209 -97.92393836 53.91997484 -96.6270752 53.18829346 C-90.71672839 49.85103552 -84.85379977 46.43540777 -79 43 C-70.36556656 37.94277158 -61.69386084 32.95404195 -53 28 C-43.93411024 22.83300152 -34.88818498 17.63363364 -25.875 12.375 C-24.92238281 11.81941406 -23.96976562 11.26382812 -22.98828125 10.69140625 C-22.08207031 10.16160156 -21.17585938 9.63179687 -20.2421875 9.0859375 C-18.93652832 8.32555176 -18.93652832 8.32555176 -17.60449219 7.54980469 C-15.81279058 6.48365154 -14.03801173 5.38870426 -12.27832031 4.27050781 C-10.96879395 3.44437988 -10.96879395 3.44437988 -9.6328125 2.6015625 C-8.8608252 2.10221191 -8.08883789 1.60286133 -7.29345703 1.08837891 C-4.65858371 -0.16202191 -2.87940737 -0.08311253 0 0 Z " fill="#F6C657" transform="translate(131,1)"/>
<path d="M0 0 C0.73347656 0.45117188 1.46695313 0.90234375 2.22265625 1.3671875 C3.31578125 1.9034375 4.40890625 2.4396875 5.53515625 2.9921875 C6.86546875 3.6728125 6.86546875 3.6728125 8.22265625 4.3671875 C8.22265625 5.0271875 8.22265625 5.6871875 8.22265625 6.3671875 C9.01929688 6.59148437 9.8159375 6.81578125 10.63671875 7.046875 C15.24341921 8.74302397 19.33985366 11.06788842 23.59765625 13.4921875 C24.42910156 13.96011719 25.26054687 14.42804688 26.1171875 14.91015625 C28.15500579 16.05789299 30.19001194 17.21032032 32.22265625 18.3671875 C32.22265625 19.0271875 32.22265625 19.6871875 32.22265625 20.3671875 C32.94453125 20.4703125 33.66640625 20.5734375 34.41015625 20.6796875 C37.50059046 21.43512697 39.64009466 22.52250065 42.22265625 24.3671875 C42.22265625 25.0271875 42.22265625 25.6871875 42.22265625 26.3671875 C44.20265625 26.8621875 44.20265625 26.8621875 46.22265625 27.3671875 C46.22265625 31.3671875 46.22265625 31.3671875 43.95703125 33.6875 C39.13095049 37.38449185 33.75384468 40.25784729 28.47265625 43.2421875 C26.72258726 44.24124263 24.9725233 45.24030671 23.22277832 46.2399292 C21.41449201 47.27206871 19.60481006 48.30172718 17.79492188 49.33105469 C12.25609425 52.48416215 6.74066414 55.67783777 1.22265625 58.8671875 C-0.94128667 60.11609263 -3.10534957 61.3647899 -5.26953125 62.61328125 C-6.87779785 63.54116455 -6.87779785 63.54116455 -8.51855469 64.48779297 C-11.79433941 66.37698916 -15.07090268 68.26482859 -18.34765625 70.15234375 C-28.05305504 75.74456394 -37.75376912 81.34400061 -47.42602539 86.9934082 C-49.46350378 88.18336744 -51.5017303 89.37204682 -53.54077148 90.55932617 C-57.7766297 93.02587016 -62.00725317 95.49848377 -66.2109375 98.01953125 C-67.18111816 98.59392944 -67.18111816 98.59392944 -68.17089844 99.17993164 C-69.8081921 100.14942875 -71.43957896 101.12888364 -73.0703125 102.109375 C-75.77734375 103.3671875 -75.77734375 103.3671875 -80.77734375 103.3671875 C-80.77734375 83.8971875 -80.77734375 64.4271875 -80.77734375 44.3671875 C-73.18734375 40.0771875 -65.59734375 35.7871875 -57.77734375 31.3671875 C-47.83060972 25.70783883 -37.89027885 20.04573169 -28.02734375 14.2421875 C-27.34978027 13.84588135 -26.6722168 13.4495752 -25.97412109 13.04125977 C-22.32148667 10.89766419 -18.70759159 8.7058382 -15.12109375 6.453125 C-13.96818848 5.7418042 -13.96818848 5.7418042 -12.79199219 5.01611328 C-11.31710392 4.10504065 -9.85099068 3.17955639 -8.39550781 2.23779297 C-3.45507395 -0.78723204 -3.45507395 -0.78723204 0 0 Z " fill="#B46816" transform="translate(211.77734375,196.6328125)"/>
<path d="M0 0 C7.26 0 14.52 0 22 0 C22.9075 3.17625 23.815 6.3525 24.75 9.625 C25.04640381 10.66060059 25.34280762 11.69620117 25.64819336 12.76318359 C26.86016314 16.99821171 28.06888813 21.23390502 29.25390625 25.4765625 C29.60324219 26.72179687 29.95257813 27.96703125 30.3125 29.25 C30.61800781 30.34828125 30.92351562 31.4465625 31.23828125 32.578125 C31.77151213 34.92563883 31.77151213 34.92563883 33 36 C33.16081055 35.43716309 33.32162109 34.87432617 33.48730469 34.29443359 C33.82616699 33.10841553 33.82616699 33.10841553 34.171875 31.8984375 C34.42235596 31.02155273 34.67283691 30.14466797 34.9309082 29.24121094 C35.47849291 27.32507249 36.02650965 25.40905745 36.57495117 23.49316406 C37.81120784 19.17264945 39.04498088 14.85168884 40.25390625 10.5234375 C40.77791016 8.65558594 40.77791016 8.65558594 41.3125 6.75 C41.61800781 5.65171875 41.92351562 4.5534375 42.23828125 3.421875 C43 1 43 1 44 0 C45.56172745 -0.08685603 47.12729344 -0.10702219 48.69140625 -0.09765625 C49.63564453 -0.09443359 50.57988281 -0.09121094 51.55273438 -0.08789062 C52.54595703 -0.07951172 53.53917969 -0.07113281 54.5625 -0.0625 C55.55958984 -0.05798828 56.55667969 -0.05347656 57.58398438 -0.04882812 C60.05604849 -0.03700007 62.52799518 -0.02051849 65 0 C68.15265214 5.49837545 69.49996109 11.2498411 71 17.375 C72.65849334 24.09535323 74.42173943 30.56969536 77 37 C79.8216544 29.07535361 82.04245077 21.13348106 83.97265625 12.95703125 C85.10921585 8.57933212 86.56975466 4.29073603 88 0 C95.26 0 102.52 0 110 0 C107.50820097 11.31692059 104.48247979 22.36264357 101.14794922 33.45947266 C98.72904391 41.51461849 96.38853927 49.58730185 94.125 57.6875 C93.83906982 58.70779297 93.55313965 59.72808594 93.25854492 60.77929688 C91.75652212 66.17232982 90.35874621 71.56501514 89 77 C81.08 77 73.16 77 65 77 C63.63875 71.9571875 63.63875 71.9571875 62.25 66.8125 C59.99111391 58.48785849 57.63486177 50.21456906 55 42 C52.27785112 48.83042264 50.30705963 55.78532357 48.375 62.875 C47.75962652 65.12289322 47.14252821 67.3703152 46.5234375 69.6171875 C46.25450684 70.60315918 45.98557617 71.58913086 45.70849609 72.60498047 C45 75 45 75 44 77 C36.41 77 28.82 77 21 77 C19.79049983 72.71764575 18.58169991 68.4351047 17.37451172 64.15209961 C16.96571341 62.70244774 16.55654803 61.25289932 16.14697266 59.8034668 C13.66774128 51.02869335 11.25474548 42.2414271 8.91992188 33.42700195 C7.40093394 27.76828814 5.75957665 22.14616947 4.11328125 16.5234375 C3.86707031 15.67265625 3.62085937 14.821875 3.3671875 13.9453125 C3.15175293 13.20812988 2.93631836 12.47094727 2.71435547 11.71142578 C1.69342837 7.83636893 0.86930284 3.91186277 0 0 Z " fill="#C06915" transform="translate(76,115)"/>
<path d="M0 0 C0.66 0.33 1.32 0.66 2 1 C2 2.66666667 2 4.33333333 2 6 C1.34 6 0.68 6 0 6 C0 6.99 0 7.98 0 9 C-0.66 9 -1.32 9 -2 9 C-2 8.01 -2 7.02 -2 6 C-4.64 6.33 -7.28 6.66 -10 7 C-7.20283196 3.70921407 -3.80471422 1.93694542 0 0 Z " fill="#EDC04E" transform="translate(102,15)"/>
<path d="M0 0 C0.66 0.33 1.32 0.66 2 1 C-1.20072058 3.65202562 -4.40465877 5.91848666 -8 8 C-8.99 8.66 -9.98 9.32 -11 10 C-11.66 9.67 -12.32 9.34 -13 9 C-13 9.66 -13 10.32 -13 11 C-14.32 10.67 -15.64 10.34 -17 10 C-14.21605957 8.29949343 -11.42172475 6.61688375 -8.625 4.9375 C-7.8309375 4.45216797 -7.036875 3.96683594 -6.21875 3.46679688 C-5.45820312 3.01240234 -4.69765625 2.55800781 -3.9140625 2.08984375 C-2.8614624 1.45357056 -2.8614624 1.45357056 -1.78759766 0.80444336 C-0.90273682 0.4062439 -0.90273682 0.4062439 0 0 Z " fill="#EBBC53" transform="translate(83,26)"/>
<path d="M0 0 C-1.6188996 1.03048037 -3.24532489 2.04914678 -4.875 3.0625 C-5.77992188 3.63097656 -6.68484375 4.19945312 -7.6171875 4.78515625 C-8.40351563 5.18605469 -9.18984375 5.58695312 -10 6 C-10.66 5.67 -11.32 5.34 -12 5 C-11.67 4.01 -11.34 3.02 -11 2 C-10.01 2 -9.02 2 -8 2 C-8 1.34 -8 0.68 -8 0 C-2.25 -1.125 -2.25 -1.125 0 0 Z " fill="#CD8C32" transform="translate(160,286)"/>
<path d="M0 0 C-0.33 0.99 -0.66 1.98 -1 3 C-1.66 3 -2.32 3 -3 3 C-3 3.66 -3 4.32 -3 5 C-5.97 5.66 -8.94 6.32 -12 7 C-8.85595666 3.85595666 -4.70527539 0 0 0 Z " fill="#E7BE4D" transform="translate(125,3)"/>
<path d="M0 0 C2.64 0.33 5.28 0.66 8 1 C2.85714286 5.42857143 2.85714286 5.42857143 -1 6 C-0.34 5.01 0.32 4.02 1 3 C0.67 2.01 0.34 1.02 0 0 Z " fill="#CA8028" transform="translate(170,274)"/>
<path d="M0 0 C0.66 0.33 1.32 0.66 2 1 C0.37660195 2.70884005 -1.29319053 4.37446717 -3 6 C-3.66 6 -4.32 6 -5 6 C-5.33 6.66 -5.66 7.32 -6 8 C-6.66 7.01 -7.32 6.02 -8 5 C-6.71475739 4.13619741 -5.42157581 3.28419631 -4.125 2.4375 C-3.04605469 1.72400391 -3.04605469 1.72400391 -1.9453125 0.99609375 C-1.30335937 0.66738281 -0.66140625 0.33867188 0 0 Z " fill="#EBC05A" transform="translate(17,64)"/>
<path d="M0 0 C0.66 0.33 1.32 0.66 2 1 C-3.75 6 -3.75 6 -6 6 C-4.98545548 3.4636387 -4.3146444 2.20648539 -2 0.6875 C-1.34 0.460625 -0.68 0.23375 0 0 Z " fill="#E8BE52" transform="translate(7,70)"/>
<path d="M0 0 C0.33 0.66 0.66 1.32 1 2 C1.66 2.33 2.32 2.66 3 3 C3 3.99 3 4.98 3 6 C0.97954558 5.39816251 -1.02111039 4.72693904 -3 4 C-3.33 3.34 -3.66 2.68 -4 2 C-3.01 2 -2.02 2 -1 2 C-0.67 1.34 -0.34 0.68 0 0 Z " fill="#DA9344" transform="translate(35,242)"/>
<path d="M0 0 C1.32 0 2.64 0 4 0 C4 0.66 4 1.32 4 2 C5.65 2.33 7.3 2.66 9 3 C9 3.66 9 4.32 9 5 C5.22454612 3.90931332 2.52956528 3.0916909 0 0 Z " fill="#D99D45" transform="translate(112,291)"/>
</svg>
