<svg viewBox="0 0 242 242" fill="none" xmlns="http://www.w3.org/2000/svg" alt="icon"><path d="M220.8 60.1C218.5 56.2 215 53.3 211 51.5L73 17.6C63.9 16.9 55.3 22.1 51.7 30.5L17.7 168.4C17 177.5 22.2 186.1 30.6 189.7L168.5 223.7C169.1 223.7 169.6 223.8 170.2 223.8C178.6 223.8 186.4 218.8 189.8 211C189.8 210.9 189.8 210.9 189.8 210.9L223.8 72.9C224.2 68.4 223.1 64 220.8 60.1ZM206 77.3L176.1 198.6C174.8 204 169.4 207.2 164 205.9L42.8 176C37.4 174.7 34.2 169.3 35.5 163.9L65.4 42.7C66.7 37.3 72.1 34.1 77.5 35.4L198.8 65.3C204.1 66.6 207.4 72 206 77.3Z" fill="url(#paint0_linear_6_2)"></path><path d="M198.7 65.2L77.5 35.4C72.1 34.1 66.7 37.4 65.4 42.7L35.5 163.9C34.2 169.3 37.5 174.7 42.8 176L164.1 205.9C169.5 207.2 174.9 203.9 176.2 198.6L206 77.3C207.4 72 204.1 66.6 198.7 65.2ZM120.8 174.5C91.1 174.5 66.9 150.3 66.9 120.6C66.9 90.9 91.1 66.7 120.8 66.7C150.5 66.7 174.7 90.9 174.7 120.6C174.7 150.3 150.5 174.5 120.8 174.5Z" fill="#9B7634"></path><path d="M120.8 84.2C100.7 84.2 84.4 100.5 84.4 120.6C84.4 140.7 100.7 157 120.8 157C140.9 157 157.2 140.7 157.2 120.6C157.2 100.5 140.9 84.2 120.8 84.2ZM120.8 134.5C113.2 134.5 107 128.3 107 120.7C107 113.1 113.2 106.9 120.8 106.9C128.4 106.9 134.6 113.1 134.6 120.7C134.6 128.3 128.4 134.5 120.8 134.5Z" fill="#9B7634"></path><path d="M120.8 66.7C91.1 66.7 66.9 90.9 66.9 120.6C66.9 150.3 91.1 174.5 120.8 174.5C150.5 174.5 174.7 150.3 174.7 120.6C174.7 90.9 150.5 66.7 120.8 66.7ZM120.8 157C100.7 157 84.4 140.7 84.4 120.6C84.4 100.5 100.7 84.2 120.8 84.2C140.9 84.2 157.2 100.5 157.2 120.6C157.2 140.7 140.9 157 120.8 157Z" fill="url(#paint1_linear_6_2)"></path><path d="M120.8 134.4C128.422 134.4 134.6 128.222 134.6 120.6C134.6 112.978 128.422 106.8 120.8 106.8C113.178 106.8 107 112.978 107 120.6C107 128.222 113.178 134.4 120.8 134.4Z" fill="url(#paint2_linear_6_2)"></path><path d="M236.8 50.5C232 42.5 224.3 36.9 215.2 34.6L77.2 0.600002C58.4 -4 39.4 7.5 34.8 26.2L0.800002 164.2C-1.4 173.3 1.43051e-06 182.7 4.8 190.7C9.6 198.7 17.3 204.3 26.4 206.6L164.4 240.6C167.2 241.3 170 241.6 172.8 241.6C188.5 241.6 202.9 230.9 206.8 214.9L240.8 76.9C243 67.9 241.6 58.5 236.8 50.5ZM189.8 211C186.4 218.8 178.6 223.8 170.2 223.8C169.6 223.8 169.1 223.7 168.5 223.7L30.6 189.7C22.2 186.1 17 177.5 17.7 168.4L51.7 30.5C55.3 22.1 63.9 16.9 73 17.6L210.9 51.6C215 53.3 218.4 56.3 220.7 60.2C223 64.1 224 68.5 223.7 72.9L189.7 210.9C189.8 210.9 189.8 210.9 189.8 211Z" fill="#9B7634"></path><path d="M198.7 65.2L77.5 35.4C72.1 34.1 66.7 37.4 65.4 42.7L35.5 163.9C34.2 169.3 37.5 174.7 42.8 176L164.1 205.9C169.5 207.2 174.9 203.9 176.2 198.6L206 77.3C207.4 72 204.1 66.6 198.7 65.2ZM120.8 174.5C91.1 174.5 66.9 150.3 66.9 120.6C66.9 90.9 91.1 66.7 120.8 66.7C150.5 66.7 174.7 90.9 174.7 120.6C174.7 150.3 150.5 174.5 120.8 174.5Z" fill="url(#paint3_linear_6_2)"></path><path d="M120.8 84.2C100.7 84.2 84.4 100.5 84.4 120.6C84.4 140.7 100.7 157 120.8 157C140.9 157 157.2 140.7 157.2 120.6C157.2 100.5 140.9 84.2 120.8 84.2ZM120.8 134.5C113.2 134.5 107 128.3 107 120.7C107 113.1 113.2 106.9 120.8 106.9C128.4 106.9 134.6 113.1 134.6 120.7C134.6 128.3 128.4 134.5 120.8 134.5Z" fill="url(#paint4_linear_6_2)"></path><path d="M236.8 50.5C232 42.5 224.3 36.9 215.2 34.6L77.2 0.600002C58.4 -4 39.4 7.5 34.8 26.2L0.800002 164.2C-1.4 173.3 1.43051e-06 182.7 4.8 190.7C9.6 198.7 17.3 204.3 26.4 206.6L164.4 240.6C167.2 241.3 170 241.6 172.8 241.6C188.5 241.6 202.9 230.9 206.8 214.9L240.8 76.9C243 67.9 241.6 58.5 236.8 50.5ZM189.8 211C186.4 218.8 178.6 223.8 170.2 223.8C169.6 223.8 169.1 223.7 168.5 223.7L30.6 189.7C22.2 186.1 17 177.5 17.7 168.4L51.7 30.5C55.3 22.1 63.9 16.9 73 17.6L210.9 51.6C215 53.3 218.4 56.3 220.7 60.2C223 64.1 224 68.5 223.7 72.9L189.7 210.9C189.8 210.9 189.8 210.9 189.8 211Z" fill="url(#paint5_linear_6_2)"></path><path d="M170.2 224.4C169.7 224.4 169.2 224.4 168.7 224.3H168.3L30.4 190.3C21.7 186.6 16.4 177.8 17.1 168.4V168.3L51.1 30.3C54.8 21.6 63.6 16.3 73 17H73.1L211.1 51C215.4 52.8 218.9 55.9 221.2 59.8C223.6 63.7 224.7 68.3 224.3 72.9V73L190.3 211V211.1V211.2C186.9 219.2 178.9 224.4 170.2 224.4ZM168.6 223H168.8C169.3 223 169.7 223.1 170.2 223.1C178.4 223.1 185.8 218.3 189.1 210.8C189.1 210.8 189.1 210.8 189.1 210.7L223.1 72.7C223.4 68.4 222.4 64.2 220.2 60.5C218 56.8 214.7 53.9 210.7 52.2L72.9 18.2C64.1 17.5 55.8 22.5 52.4 30.6L18.4 168.4C17.7 177.2 22.7 185.5 30.8 189L168.6 223Z" fill="url(#paint6_linear_6_2)"></path><path d="M172.8 242.3C169.9 242.3 167.1 241.9 164.3 241.3L26.3 207.3C17 205 9.19997 199.3 4.29997 191.1C-0.600029 182.9 -2.10003 173.4 0.19997 164.1L34.2 26.1C38.8 7 58.2 -4.7 77.3 -9.53674e-07L215.3 34C224.6 36.3 232.4 42 237.3 50.2C242.2 58.4 243.7 67.9 241.4 77.2L207.4 215.2C203.5 231.1 189.2 242.3 172.8 242.3ZM68.8 0.299999C53.4 0.299999 39.3 10.8 35.4 26.4L1.39997 164.4C-0.800029 173.3 0.59997 182.6 5.39997 190.4C10.1 198.3 17.7 203.8 26.6 206L164.6 240C167.3 240.7 170.1 241 172.8 241C188.7 241 202.4 230.2 206.2 214.8L240.2 76.8C242.4 67.9 241 58.7 236.2 50.8C231.4 42.9 223.9 37.4 215 35.2L77 1.3C74.3 0.599999 71.5 0.299999 68.8 0.299999Z" fill="url(#paint7_linear_6_2)"></path><path d="M166.5 206.8C165.6 206.8 164.8 206.7 163.9 206.5L42.7 176.6C37 175.2 33.5 169.4 34.9 163.7L64.8 42.5C66.2 36.8 72 33.3 77.7 34.7L199 64.6C201.8 65.3 204.1 67 205.6 69.4C207.1 71.8 207.5 74.7 206.8 77.4L176.9 198.7C176.2 201.5 174.5 203.8 172.1 205.3C170.3 206.3 168.4 206.8 166.5 206.8ZM75.1 35.7C70.9 35.7 67.1 38.5 66 42.8L36.2 164.1C35 169.1 38 174.2 43 175.4L164.3 205.3C166.7 205.9 169.2 205.5 171.4 204.2C173.5 202.9 175 200.9 175.6 198.5L205.5 77.2C206.1 74.8 205.7 72.3 204.4 70.1C203.1 68 201.1 66.5 198.7 65.9L77.3 36C76.6 35.8 75.8 35.7 75.1 35.7Z" fill="url(#paint8_linear_6_2)"></path><path d="M120.8 175.2C90.7 175.2 66.2 150.7 66.2 120.6C66.2 90.5 90.7 66 120.8 66C150.9 66 175.4 90.5 175.4 120.6C175.3 150.7 150.9 175.2 120.8 175.2ZM120.8 67.4C91.4 67.4 67.6 91.3 67.6 120.6C67.6 149.9 91.5 173.8 120.8 173.8C150.1 173.8 174 150 174 120.6C174 91.2 150.1 67.4 120.8 67.4Z" fill="url(#paint9_linear_6_2)"></path><path d="M120.8 135.1C112.8 135.1 106.3 128.6 106.3 120.6C106.3 112.6 112.8 106.1 120.8 106.1C128.8 106.1 135.3 112.6 135.3 120.6C135.3 128.6 128.8 135.1 120.8 135.1ZM120.8 107.4C113.5 107.4 107.6 113.3 107.6 120.6C107.6 127.9 113.5 133.8 120.8 133.8C128.1 133.8 134 127.9 134 120.6C134 113.4 128 107.4 120.8 107.4Z" fill="url(#paint10_linear_6_2)"></path><path d="M120.8 157.7C100.4 157.7 83.7 141.1 83.7 120.6C83.7 100.2 100.3 83.5 120.8 83.5C141.2 83.5 157.9 100.1 157.9 120.6C157.9 141.1 141.2 157.7 120.8 157.7ZM120.8 84.9C101.1 84.9 85 100.9 85 120.7C85 140.5 101 156.5 120.8 156.5C140.6 156.5 156.6 140.5 156.6 120.7C156.6 100.9 140.5 84.9 120.8 84.9Z" fill="url(#paint11_linear_6_2)"></path><defs><linearGradient id="paint0_linear_6_2" x1="120.783" y1="190.337" x2="120.783" y2="51.4005" gradientUnits="userSpaceOnUse"><stop stop-color="#4D3311"></stop><stop offset="1" stop-color="#785929"></stop></linearGradient><linearGradient id="paint1_linear_6_2" x1="120.777" y1="190.337" x2="120.777" y2="51.4005" gradientUnits="userSpaceOnUse"><stop stop-color="#4D3311"></stop><stop offset="1" stop-color="#785929"></stop></linearGradient><linearGradient id="paint2_linear_6_2" x1="120.778" y1="190.337" x2="120.778" y2="51.4005" gradientUnits="userSpaceOnUse"><stop stop-color="#4D3311"></stop><stop offset="1" stop-color="#785929"></stop></linearGradient><linearGradient id="paint3_linear_6_2" x1="120.778" y1="31.7352" x2="120.778" y2="222.329" gradientUnits="userSpaceOnUse"><stop stop-color="#DCBE78"></stop><stop offset="1" stop-color="#9B7634"></stop></linearGradient><linearGradient id="paint4_linear_6_2" x1="120.777" y1="31.7352" x2="120.777" y2="222.329" gradientUnits="userSpaceOnUse"><stop stop-color="#DCBE78"></stop><stop offset="1" stop-color="#9B7634"></stop></linearGradient><linearGradient id="paint5_linear_6_2" x1="120.778" y1="31.7352" x2="120.778" y2="222.329" gradientUnits="userSpaceOnUse"><stop stop-color="#DCBE78"></stop><stop offset="1" stop-color="#9B7634"></stop></linearGradient><linearGradient id="paint6_linear_6_2" x1="17.0344" y1="120.636" x2="224.532" y2="120.636" gradientUnits="userSpaceOnUse"><stop stop-color="#CEB266"></stop><stop offset="1" stop-color="#9B7634"></stop></linearGradient><linearGradient id="paint7_linear_6_2" x1="-0.917729" y1="120.624" x2="242.472" y2="120.624" gradientUnits="userSpaceOnUse"><stop stop-color="#CEB266"></stop><stop offset="1" stop-color="#9B7634"></stop></linearGradient><linearGradient id="paint8_linear_6_2" x1="34.5676" y1="120.625" x2="206.99" y2="120.625" gradientUnits="userSpaceOnUse"><stop stop-color="#CEB266"></stop><stop offset="1" stop-color="#9B7634"></stop></linearGradient><linearGradient id="paint9_linear_6_2" x1="66.2192" y1="120.623" x2="175.335" y2="120.623" gradientUnits="userSpaceOnUse"><stop stop-color="#CEB266"></stop><stop offset="1" stop-color="#9B7634"></stop></linearGradient><linearGradient id="paint10_linear_6_2" x1="106.278" y1="120.623" x2="135.276" y2="120.623" gradientUnits="userSpaceOnUse"><stop stop-color="#CEB266"></stop><stop offset="1" stop-color="#9B7634"></stop></linearGradient><linearGradient id="paint11_linear_6_2" x1="83.7029" y1="120.623" x2="157.852" y2="120.623" gradientUnits="userSpaceOnUse"><stop stop-color="#CEB266"></stop><stop offset="1" stop-color="#9B7634"></stop></linearGradient><clipPath id="clip0_6_2"><rect width="242" height="242" fill="white"></rect></clipPath></defs></svg>