<svg width="21" height="15" viewBox="0 0 21 15" fill="none" xmlns="http://www.w3.org/2000/svg">
<path d="M20.098 2.64506C19.8644 1.77201 19.1782 1.08593 18.3052 0.852225C16.7244 0.428223 10.3827 0.428223 10.3827 0.428223C10.3827 0.428223 4.04106 0.428223 2.46023 0.852225C1.5872 1.08593 0.901112 1.77201 0.66741 2.64506C0.243408 4.22588 0.243408 7.52608 0.243408 7.52608C0.243408 7.52608 0.243408 10.8263 0.66741 12.4071C0.901112 13.2802 1.5872 13.9663 2.46023 14.1999C4.04106 14.6239 10.3827 14.6239 10.3827 14.6239C10.3827 14.6239 16.7244 14.6239 18.3052 14.1999C19.1782 13.9663 19.8644 13.2802 20.098 12.4071C20.5221 10.8263 20.5221 7.52608 20.5221 7.52608C20.5221 7.52608 20.5204 4.22588 20.098 2.64506Z" fill="#FF0000"/>
<path d="M8.35278 10.5677L13.6211 7.52622L8.35278 4.48474V10.5677Z" fill="white"/>
</svg>
