<svg width="13" height="10" viewBox="0 0 13 10" fill="none" xmlns="http://www.w3.org/2000/svg">
<path d="M12.379 4.98348C12.379 4.79034 12.298 4.60342 12.1547 4.46635L8.06131 0.372918C7.89931 0.217156 7.73109 0.148621 7.55664 0.148621C7.15789 0.148621 6.87128 0.428993 6.87128 0.809053C6.87128 1.00843 6.95228 1.17665 7.07689 1.30126L8.47875 2.72181L10.2856 4.37289L8.84012 4.28567H1.28876C0.871319 4.28567 0.584717 4.57227 0.584717 4.98348C0.584717 5.38846 0.871319 5.67507 1.28876 5.67507H8.84012L10.2856 5.58784L8.47875 7.23892L7.07689 8.65947C6.95228 8.78408 6.87128 8.9523 6.87128 9.15168C6.87128 9.53174 7.15789 9.81211 7.55664 9.81211C7.73109 9.81211 7.89931 9.74358 8.04885 9.60028L12.1547 5.49438C12.298 5.35731 12.379 5.1704 12.379 4.98348Z" fill="white"/>
</svg>
